<svg width="50" height="50" viewBox="0 0 50 50" fill="none" xmlns="http://www.w3.org/2000/svg">
<path d="M15.625 24C15.0727 24 14.625 24.4477 14.625 25C14.625 25.5523 15.0727 26 15.625 26V24ZM34.5613 25.7071C34.9518 25.3166 34.9518 24.6834 34.5613 24.2929L28.1973 17.9289C27.8068 17.5384 27.1736 17.5384 26.7831 17.9289C26.3926 18.3195 26.3926 18.9526 26.7831 19.3431L32.44 25L26.7831 30.6569C26.3926 31.0474 26.3926 31.6805 26.7831 32.0711C27.1736 32.4616 27.8068 32.4616 28.1973 32.0711L34.5613 25.7071ZM15.625 26H33.8542V24H15.625V26Z" fill="white"/>
<circle cx="25" cy="25" r="24" stroke="#006CDF" stroke-width="2"/>
</svg>
