<svg width="29" height="29" viewBox="0 0 29 29" fill="none" xmlns="http://www.w3.org/2000/svg">
<path d="M8.97412 13.3576C8.42184 13.3576 7.97412 13.8053 7.97412 14.3576C7.97412 14.9099 8.42184 15.3576 8.97412 15.3576V13.3576ZM20.1503 15.0647C20.5408 14.6742 20.5408 14.041 20.1503 13.6505L13.7863 7.28654C13.3958 6.89601 12.7627 6.89601 12.3721 7.28654C11.9816 7.67706 11.9816 8.31023 12.3721 8.70075L18.029 14.3576L12.3721 20.0145C11.9816 20.405 11.9816 21.0381 12.3721 21.4287C12.7627 21.8192 13.3958 21.8192 13.7863 21.4287L20.1503 15.0647ZM8.97412 15.3576H19.4432V13.3576H8.97412V15.3576Z" fill="white"/>
<circle cx="14.3576" cy="14.3576" r="13.3576" stroke="#006CDF" stroke-width="2"/>
</svg>
