<svg width="29" height="29" viewBox="0 0 29 29" fill="none" xmlns="http://www.w3.org/2000/svg">
<path d="M19.7417 15.6424C20.294 15.6424 20.7417 15.1947 20.7417 14.6424C20.7417 14.0901 20.294 13.6424 19.7417 13.6424L19.7417 15.6424ZM8.56551 13.9353C8.17499 14.3258 8.17499 14.959 8.56551 15.3495L14.9295 21.7135C15.32 22.104 15.9532 22.104 16.3437 21.7135C16.7342 21.3229 16.7342 20.6898 16.3437 20.2992L10.6868 14.6424L16.3437 8.98554C16.7342 8.59502 16.7342 7.96185 16.3437 7.57133C15.9532 7.1808 15.32 7.1808 14.9295 7.57133L8.56551 13.9353ZM19.7417 13.6424L9.27262 13.6424L9.27262 15.6424L19.7417 15.6424L19.7417 13.6424Z" fill="white"/>
<circle cx="14.3577" cy="14.6424" r="13.3576" transform="rotate(180 14.3577 14.6424)" stroke="#006CDF" stroke-width="2"/>
</svg>
