<svg width="50" height="50" viewBox="0 0 50 50" fill="none" xmlns="http://www.w3.org/2000/svg">
<path d="M34.375 26C34.9273 26 35.375 25.5523 35.375 25C35.375 24.4477 34.9273 24 34.375 24L34.375 26ZM15.4387 24.2929C15.0482 24.6834 15.0482 25.3166 15.4387 25.7071L21.8027 32.0711C22.1932 32.4616 22.8264 32.4616 23.2169 32.0711C23.6074 31.6805 23.6074 31.0474 23.2169 30.6569L17.56 25L23.2169 19.3431C23.6074 18.9526 23.6074 18.3195 23.2169 17.9289C22.8264 17.5384 22.1932 17.5384 21.8027 17.9289L15.4387 24.2929ZM34.375 24L16.1458 24L16.1458 26L34.375 26L34.375 24Z" fill="white"/>
<circle cx="25" cy="25" r="24" transform="rotate(180 25 25)" stroke="#006CDF" stroke-width="2"/>
</svg>
